<svg width="14" height="18" viewBox="0 0 14 18" fill="none" xmlns="http://www.w3.org/2000/svg">
<path d="M13.1288 12.2327C13.1288 14.0858 11.9624 15.5879 10.3615 16.4701C5.80088 16.1578 2.95332 10.0505 6.93359 2.4249C7.16364 3.03622 7.50469 3.62643 7.98792 4.1791C10.3659 6.69518 13.115 8.9289 13.1288 12.2327Z" fill="#FD7A6E"/>
<path d="M10.3614 16.4701C9.35777 17.0235 8.18306 17.3333 7.01805 17.3333C1.54221 17.2817 -0.518828 12.9839 1.82792 7.94271C2.12235 7.30993 2.19647 6.46819 1.95132 5.59297C1.86783 5.29417 2.20217 5.05273 2.45969 5.22509C3.01301 5.59599 3.48384 5.97926 3.85774 6.44306C4.05692 6.69056 4.45666 6.55172 4.45363 6.23379C4.43085 3.84446 5.18537 2.03629 5.96971 0.820666C6.14006 0.556408 6.54618 0.650647 6.58339 0.962854C6.6424 1.45781 6.75406 1.94775 6.93348 2.42496C4.11792 10.0254 7.0231 15.4125 10.3614 16.4701Z" fill="#FC7F74"/>
<path d="M12.4581 6.20748C12.8285 6.20748 13.1288 5.9072 13.1288 5.53678C13.1288 5.16636 12.8285 4.86607 12.4581 4.86607C12.0876 4.86607 11.7874 5.16636 11.7874 5.53678C11.7874 5.9072 12.0876 6.20748 12.4581 6.20748Z" fill="#FD7A6E"/>
<path d="M9.78912 0.873531C9.72209 0.714937 9.51083 0.681636 9.39758 0.811324C8.91415 1.36494 8.43056 2.30061 9.0886 2.97757C9.39621 3.29401 10.0723 3.7316 10.4514 4.30879C10.5578 4.4707 10.7934 4.47203 10.9007 4.31071C12.3384 2.14817 10.3926 2.30133 9.78912 0.873531Z" fill="#FD7A6E"/>
<path d="M11.7874 12.2357C11.7133 13.231 11.3246 13.9986 10.7488 14.5728C6.64576 15.9165 2.37714 12.5227 5.26929 7.45738C5.2844 7.44296 5.29914 7.42854 5.31356 7.41344C5.62811 7.09554 5.79914 6.672 5.79514 6.22096C5.78944 5.62906 5.83905 5.08112 5.92658 4.57845C5.97688 4.28971 6.35113 4.20117 6.52551 4.43658C8.42252 6.99563 11.887 9.22334 11.7874 12.2357Z" fill="#F9EF80"/>
<path d="M10.7488 14.5728C9.81623 15.503 8.39334 15.9269 7.02446 15.992C5.02951 15.9718 3.57108 15.3206 2.8065 14.1086C1.73221 12.5714 2.30265 10.215 3.18957 8.02418C3.25493 7.86269 3.43426 7.7775 3.60008 7.83098C4.16766 8.01409 4.83469 7.87193 5.26929 7.45741C3.20451 12.4321 7.02196 15.1874 10.7488 14.5728Z" fill="#F9D071"/>
<path d="M2.92633 3.70429C2.11949 3.84654 1.41204 3.05152 1.74869 2.30182C1.9856 1.77421 2.32965 1.62897 2.21926 0.859077C2.19768 0.708621 2.36972 0.609435 2.48938 0.703152C3.16542 1.23261 3.67587 1.84645 3.76532 2.46158C3.85605 2.98824 3.58736 3.58776 2.92633 3.70429Z" fill="#FC7F74"/>
<path d="M4.31203 13.3944C4.86425 13.3944 5.3119 13.0379 5.3119 12.5982C5.3119 12.1584 4.86425 11.8019 4.31203 11.8019C3.75982 11.8019 3.31216 12.1584 3.31216 12.5982C3.31216 13.0379 3.75982 13.3944 4.31203 13.3944Z" fill="#77000E"/>
<path d="M9.73174 13.3944C10.284 13.3944 10.7316 13.0379 10.7316 12.5982C10.7316 12.1584 10.284 11.8019 9.73174 11.8019C9.17953 11.8019 8.73187 12.1584 8.73187 12.5982C8.73187 13.0379 9.17953 13.3944 9.73174 13.3944Z" fill="#77000E"/>
<path d="M5.28886 11.1705C5.27434 11.1705 5.25969 11.1693 5.24488 11.1667L4.53648 11.0418C4.3997 11.0177 4.30836 10.8872 4.33248 10.7504C4.3566 10.6136 4.487 10.5222 4.62385 10.5464L5.33225 10.6713C5.46903 10.6954 5.56037 10.8258 5.53625 10.9627C5.5147 11.0847 5.40862 11.1705 5.28886 11.1705Z" fill="#666667"/>
<path d="M8.75489 11.1705C8.63513 11.1705 8.52901 11.0847 8.5075 10.9627C8.48337 10.8259 8.57468 10.6954 8.7115 10.6713L9.41993 10.5464C9.55707 10.5222 9.68715 10.6136 9.7113 10.7504C9.73542 10.8872 9.64412 11.0177 9.5073 11.0418L8.79887 11.1667C8.78409 11.1693 8.76941 11.1705 8.75489 11.1705Z" fill="#666667"/>
<path d="M7.99143 11.6396C7.8525 11.6396 7.73993 11.7522 7.73993 11.8911C7.73993 12.0197 7.63531 12.1243 7.50666 12.1243C7.37805 12.1243 7.27343 12.0197 7.27343 11.8911C7.27343 11.7521 7.16083 11.6396 7.02193 11.6396C6.88303 11.6396 6.77043 11.7522 6.77043 11.8911C6.77043 12.0197 6.66581 12.1243 6.53716 12.1243C6.40855 12.1243 6.30393 12.0197 6.30393 11.8911C6.30393 11.7521 6.19133 11.6396 6.05243 11.6396C5.91353 11.6396 5.80093 11.7522 5.80093 11.8911C5.80093 12.2971 6.13121 12.6273 6.5372 12.6273C6.72274 12.6273 6.89234 12.5582 7.02196 12.4445C7.15158 12.5582 7.32118 12.6273 7.50673 12.6273C7.91272 12.6273 8.24302 12.2971 8.24302 11.8911C8.24293 11.7521 8.13033 11.6396 7.99143 11.6396Z" fill="#666667"/>
<path d="M4.89478 12.08C4.75585 12.08 4.64328 11.9674 4.64328 11.8285V11.4261C4.64328 11.2872 4.75588 11.1746 4.89478 11.1746C5.03368 11.1746 5.14627 11.2872 5.14627 11.4261V11.8285C5.14627 11.9674 5.03371 12.08 4.89478 12.08Z" fill="#666667"/>
<path d="M9.14902 12.08C9.01009 12.08 8.89752 11.9674 8.89752 11.8285V11.4261C8.89752 11.2872 9.01012 11.1746 9.14902 11.1746C9.28792 11.1746 9.40052 11.2872 9.40052 11.4261V11.8285C9.40052 11.9674 9.28795 12.08 9.14902 12.08Z" fill="#666667"/>
</svg>
